<svg width="32" height="32" viewBox="0 0 32 32" fill="none" xmlns="http://www.w3.org/2000/svg">
<g clip-path="url(#clip0_169_12294)">
<path d="M16 32C24.8366 32 32 24.8366 32 16C32 7.16344 24.8366 0 16 0C7.16344 0 0 7.16344 0 16C0 24.8366 7.16344 32 16 32Z" fill="#585858"/>
<path fill-rule="evenodd" clip-rule="evenodd" d="M16.1641 25.0307C17.0391 25.0307 17.9141 24.781 18.7891 24.6561C19.7891 25.0307 20.9141 25.0307 22.0391 24.9059H22.1641C22.5391 24.9059 23.0391 25.1556 23.7891 25.6551V24.9059C23.7891 24.6561 23.9141 24.4064 24.1641 24.2815C24.5391 24.1566 24.7891 23.9069 25.0391 23.6571C26.1641 22.783 26.7891 21.5343 26.7891 20.2856C26.7891 19.911 26.6641 19.4115 26.5391 19.0369C26.9141 18.4125 27.1641 17.7882 27.2891 17.1638C27.9141 18.1628 28.2891 19.1617 28.2891 20.2856C28.2891 22.0338 27.4141 23.6571 26.0391 24.9059C25.7891 25.1556 25.5391 25.2805 25.2891 25.4053V27.2784C25.2891 27.9028 24.5391 28.2774 24.0391 27.9028C23.5391 27.5282 23.0391 27.1535 22.5391 26.9038C22.4141 26.7789 22.2891 26.7789 22.0391 26.6541C21.6641 26.7789 21.1641 26.7789 20.7891 26.7789C19.0391 26.5292 17.4141 25.9048 16.1641 25.0307ZM6.78906 21.4094C4.53906 19.5364 3.28906 16.9141 3.28906 14.1669C3.28906 8.54764 8.66406 4.05225 15.1641 4.05225C21.6641 4.05225 27.0391 8.54764 27.0391 14.1669C27.0391 19.7861 21.6641 24.2815 15.1641 24.2815C14.4141 24.2815 13.6641 24.2815 13.0391 24.1566C12.7891 24.2815 11.5391 24.9059 9.78906 26.2794C9.16406 26.7789 8.28906 26.2794 8.28906 25.5302V22.4084C7.66406 22.0338 7.16406 21.7841 6.78906 21.4094ZM13.0391 22.2835H13.1641C13.7891 22.4084 14.4141 22.4084 15.1641 22.4084C20.6641 22.4084 25.0391 18.6623 25.0391 14.1669C25.0391 9.67148 20.6641 5.92532 15.1641 5.92532C9.66406 5.92532 5.28906 9.67148 5.28906 14.1669C5.28906 16.2897 6.28906 18.4125 8.16406 19.911C8.66406 20.2856 9.16406 20.6602 9.66406 20.91C9.91406 21.0348 10.1641 21.4094 10.1641 21.7841V23.5323C11.4141 22.6582 12.4141 22.2835 13.0391 22.2835Z" fill="white"/>
<path d="M21.0891 10.8522C20.9786 10.8522 20.8891 10.9418 20.8891 11.0522V11.6522H20.4611C20.3984 11.4044 20.2195 11.2024 19.9811 11.1102C19.9508 11.1023 19.9201 11.0962 19.8891 11.0922V10.6522H20.4891C20.7557 10.6522 20.7557 10.2522 20.4891 10.2522H19.8891C19.6681 10.2522 19.4891 10.4313 19.4891 10.6522V11.0782C19.1361 11.1694 18.8893 11.4877 18.8891 11.8522C18.89 12.0362 18.9543 12.2142 19.0711 12.3562C18.9462 13.0866 18.1437 13.4813 17.4891 13.1342V12.8522C17.4882 12.7102 17.4121 12.5793 17.2891 12.5082V11.8522H17.6891C17.91 11.8522 18.0891 11.6732 18.0891 11.4522V10.8522C18.0891 10.6313 17.91 10.4522 17.6891 10.4522H17.2891V10.0522C17.2891 8.94767 16.3936 8.05225 15.2891 8.05225C14.1845 8.05225 13.2891 8.94767 13.2891 10.0522V10.4522H12.8891C12.6681 10.4522 12.4891 10.6313 12.4891 10.8522V11.4522C12.4891 11.6732 12.6681 11.8522 12.8891 11.8522H13.2891V12.5082C13.166 12.5793 13.0899 12.7102 13.0891 12.8522V13.1102C11.7388 12.7937 10.4198 13.7416 10.2891 15.1222C10.2061 15.2169 10.1472 15.3301 10.1171 15.4522H9.68906C9.46815 15.4522 9.28906 15.6313 9.28906 15.8522V16.4522C9.28906 16.7189 9.68906 16.7189 9.68906 16.4522V15.8522H10.1171C10.1797 16.1001 10.3586 16.3021 10.5971 16.3942C10.6271 16.4056 10.6578 16.415 10.6891 16.4222V16.8522H10.0891C9.8224 16.8522 9.8224 17.2522 10.0891 17.2522H10.6891C10.91 17.2522 11.0891 17.0732 11.0891 16.8522V16.4262C11.6514 16.2787 11.8735 15.5996 11.5071 15.1482C11.6376 14.4221 12.4377 14.0336 13.0891 14.3802V15.2522C13.0891 15.4732 13.2681 15.6522 13.4891 15.6522V16.8522V17.6522V18.2522H13.2391C13.0607 18.2525 12.9041 18.3708 12.8551 18.5422L12.5691 19.5422C12.4958 19.7984 12.6887 20.0532 12.9551 20.0522H17.6231C17.8886 20.0519 18.0801 19.7976 18.0071 19.5422L17.7211 18.5422C17.6722 18.3715 17.5167 18.2534 17.3391 18.2522H17.0891V17.6522V16.8522V15.6522C17.31 15.6522 17.4891 15.4732 17.4891 15.2522V14.4042C18.8393 14.7208 20.1584 13.7729 20.2891 12.3922C20.3749 12.2984 20.4366 12.1852 20.4691 12.0622H20.8891C21.11 12.0622 21.2891 11.8832 21.2891 11.6622V11.0522C21.2891 10.9418 21.1995 10.8522 21.0891 10.8522ZM19.3331 11.6702C19.4014 11.5365 19.5389 11.4523 19.6891 11.4522C19.7372 11.4537 19.7846 11.4639 19.8291 11.4822C20.1064 11.5928 20.1693 11.9571 19.9451 12.1542C19.8928 12.2004 19.8294 12.2321 19.7611 12.2462C19.7116 12.2562 19.6606 12.2562 19.6111 12.2462C19.5365 12.2332 19.4671 12.1992 19.4111 12.1482L19.3931 12.1362C19.2719 12.0129 19.2437 11.8258 19.3231 11.6722L19.3331 11.6702ZM13.6891 10.6522V10.2522H16.8891V11.4462L15.2605 11.4438L13.6891 11.4414V10.6522ZM13.6891 11.8657L15.2605 12.3133L16.8891 11.8702V12.4522H13.6891V11.8657ZM17.6891 10.8522V11.4522H17.2891V10.8522H17.6891ZM15.2891 8.45225C16.0956 8.45197 16.7762 9.05204 16.8771 9.85224H13.7011C13.8019 9.05204 14.4825 8.45197 15.2891 8.45225ZM12.8891 11.4522V10.8522H13.2891V11.4522H12.8891ZM11.2451 15.8342C11.1767 15.968 11.0392 16.0522 10.8891 16.0522C10.8403 16.051 10.7922 16.0408 10.7471 16.0222C10.4697 15.9117 10.4068 15.5473 10.6311 15.3502C10.6812 15.302 10.7434 15.2682 10.8111 15.2522C10.837 15.2498 10.8631 15.2498 10.8891 15.2522C10.9157 15.2497 10.9425 15.2497 10.9691 15.2522C11.0437 15.2653 11.113 15.2993 11.1691 15.3502L11.1851 15.3602C11.3078 15.4834 11.3369 15.6718 11.2571 15.8262L11.2451 15.8342ZM12.5831 13.8522C11.9297 13.8512 11.3511 14.2736 11.1531 14.8962C11.1185 14.8848 11.083 14.8761 11.0471 14.8702C10.9952 14.8586 10.9422 14.8526 10.8891 14.8522C10.8435 14.8524 10.798 14.8565 10.7531 14.8642C11.0243 13.846 12.0724 13.2429 13.0891 13.5202V13.9402C12.9268 13.8818 12.7556 13.852 12.5831 13.8522ZM15.4891 15.6522V16.8522V17.6522V18.2522H15.0891V17.6522C15.0891 17.6522 15.0827 17.1723 15.0891 16.8522V15.6522H15.4891ZM14.6891 15.6522V16.8522C14.6891 16.9627 14.5995 17.0522 14.4891 17.0522H14.0891C13.9786 17.0522 13.8891 16.9627 13.8891 16.8522V15.6522H14.6891ZM13.8891 17.6522C13.8891 17.5418 13.9786 17.4522 14.0891 17.4522H14.4891C14.5995 17.4522 14.6891 17.5418 14.6891 17.6522V18.2522H13.8891V17.6522ZM13.2391 18.6522H15.0891V19.6522H12.9551L13.2391 18.6522ZM17.6231 19.6522H15.4891V18.6522H17.3391L17.6231 19.6522ZM15.8891 18.2522V17.6522C15.8891 17.5418 15.9786 17.4522 16.0891 17.4522H16.4891C16.5995 17.4522 16.6891 17.5418 16.6891 17.6522V18.2522H15.8891ZM16.6891 16.8522C16.6891 16.9627 16.5995 17.0522 16.4891 17.0522H16.0891C15.9786 17.0522 15.8891 16.9627 15.8891 16.8522V15.6522H16.6891V16.8522ZM16.8891 15.2522H13.4891V12.8522H17.0891V13.2522V14.1402V15.2522H16.8891ZM17.9911 14.0522C17.8219 14.0553 17.6531 14.0358 17.4891 13.9942V13.5742C18.2888 13.8626 19.1679 13.4285 19.4251 12.6182C19.4596 12.6297 19.4951 12.6384 19.5311 12.6442H19.5651C19.6061 12.6502 19.6476 12.6529 19.6891 12.6522C19.7197 12.6541 19.7504 12.6541 19.7811 12.6522H19.8251C19.5981 13.4765 18.85 14.0488 17.9951 14.0522H17.9911Z" fill="white"/>
<path d="M14.4005 10.8866C14.3903 10.8787 14.3788 10.8726 14.3665 10.8686C14.3546 10.8625 14.3417 10.8585 14.3285 10.8566C14.3028 10.8505 14.2761 10.8505 14.2505 10.8566C14.238 10.8587 14.2258 10.8628 14.2145 10.8686C14.2018 10.873 14.1896 10.879 14.1785 10.8866L14.1485 10.9106C14.13 10.9293 14.1153 10.9514 14.1053 10.9758C14.0954 11.0002 14.0903 11.0263 14.0905 11.0526C14.0896 11.0659 14.0896 11.0793 14.0905 11.0926C14.0927 11.1051 14.0968 11.1172 14.1025 11.1286C14.1064 11.1409 14.1125 11.1524 14.1205 11.1626L14.1445 11.1946C14.1637 11.2136 14.1865 11.2286 14.2116 11.2385C14.2367 11.2485 14.2635 11.2533 14.2905 11.2526C14.3435 11.2518 14.3942 11.2311 14.4325 11.1946L14.4565 11.1626C14.4644 11.1524 14.4705 11.1409 14.4745 11.1286C14.4817 11.1175 14.4871 11.1054 14.4905 11.0926C14.4915 11.0793 14.4915 11.0659 14.4905 11.0526C14.4898 10.9996 14.469 10.9489 14.4325 10.9106L14.4005 10.8866Z" fill="white"/>
<path d="M16.4011 10.886C16.3899 10.8784 16.3778 10.8723 16.3651 10.868L16.3291 10.852C16.3027 10.8459 16.2754 10.8459 16.2491 10.852C16.2365 10.8541 16.2244 10.8582 16.2131 10.864C16.2003 10.8683 16.1882 10.8744 16.177 10.882L16.1471 10.906C16.1283 10.9246 16.1134 10.9467 16.1033 10.971C16.0931 10.9954 16.0879 11.0216 16.0879 11.048C16.0879 11.0744 16.0931 11.1005 16.1033 11.1249C16.1134 11.1493 16.1283 11.1714 16.1471 11.19L16.177 11.214C16.1882 11.2215 16.2003 11.2276 16.2131 11.232L16.2491 11.244H16.2891H16.3291L16.3651 11.232C16.3778 11.2276 16.3899 11.2215 16.4011 11.214L16.4311 11.19C16.4498 11.1714 16.4647 11.1493 16.4748 11.1249C16.485 11.1005 16.4902 11.0744 16.4902 11.048C16.4902 11.0216 16.485 10.9954 16.4748 10.971C16.4647 10.9467 16.4498 10.9246 16.4311 10.906L16.4011 10.886Z" fill="white"/>
</g>
<defs>
<clipPath id="clip0_169_12294">
<rect width="32" height="32" fill="white"/>
</clipPath>
</defs>
</svg>
