<svg width="32" height="32" viewBox="0 0 32 32" fill="none" xmlns="http://www.w3.org/2000/svg">
<g clip-path="url(#clip0_169_12294)">
<path d="M16 32C24.8366 32 32 24.8366 32 16C32 7.16344 24.8366 0 16 0C7.16344 0 0 7.16344 0 16C0 24.8366 7.16344 32 16 32Z" fill="#3B82F6"/>
<path fill-rule="evenodd" clip-rule="evenodd" d="M16.1341 24.2825C16.9391 24.2825 17.7441 24.0536 18.5491 23.9391C19.4691 24.2825 20.5041 24.2825 21.5391 24.1681H21.6541C21.9991 24.1681 22.4591 24.397 23.1491 24.8548V24.1681C23.1491 23.9391 23.2641 23.7102 23.4941 23.5957C23.8391 23.4813 24.0691 23.2523 24.2991 23.0234C25.3341 22.2221 25.9091 21.0775 25.9091 19.9328C25.9091 19.5894 25.7941 19.1316 25.6791 18.7882C26.0241 18.2158 26.2541 17.6435 26.3691 17.0712C26.9441 17.9869 27.2891 18.9026 27.2891 19.9328C27.2891 21.5353 26.4841 23.0234 25.2191 24.1681C24.9891 24.397 24.7591 24.5115 24.5291 24.6259V26.3429C24.5291 26.9152 23.8391 27.2586 23.3791 26.9152C22.9191 26.5718 22.4591 26.2284 21.9991 25.9995C21.8841 25.885 21.7691 25.885 21.5391 25.7706C21.1941 25.885 20.7341 25.885 20.3891 25.885C18.7791 25.6561 17.2841 25.0838 16.1341 24.2825ZM7.50906 20.963C5.43906 19.246 4.28906 16.8422 4.28906 14.324C4.28906 9.17302 9.23406 5.05225 15.2141 5.05225C21.1941 5.05225 26.1391 9.17302 26.1391 14.324C26.1391 19.475 21.1941 23.5957 15.2141 23.5957C14.5241 23.5957 13.8341 23.5957 13.2591 23.4813C13.0291 23.5957 11.8791 24.1681 10.2691 25.4272C9.69406 25.885 8.88906 25.4272 8.88906 24.7404V21.8787C8.31406 21.5353 7.85406 21.3064 7.50906 20.963ZM13.2591 21.7643H13.3741C13.9491 21.8787 14.5241 21.8787 15.2141 21.8787C20.2741 21.8787 24.2991 18.4448 24.2991 14.324C24.2991 10.2032 20.2741 6.76923 15.2141 6.76923C10.1541 6.76923 6.12906 10.2032 6.12906 14.324C6.12906 16.2699 7.04906 18.2158 8.77406 19.5894C9.23406 19.9328 9.69406 20.2762 10.1541 20.5051C10.3841 20.6196 10.6141 20.963 10.6141 21.3064V22.9089C11.7641 22.1077 12.6841 21.7643 13.2591 21.7643Z" fill="white"/>
<path d="M20.1224 11.3856C20.0303 11.3856 19.9557 11.4602 19.9557 11.5522V12.0522H19.5991C19.5469 11.8457 19.3978 11.6773 19.1991 11.6006C19.1739 11.5939 19.1482 11.5889 19.1224 11.5856V11.2189H19.6224C19.8446 11.2189 19.8446 10.8856 19.6224 10.8856H19.1224C18.9383 10.8856 18.7891 11.0348 18.7891 11.2189V11.5739C18.4949 11.6499 18.2893 11.9151 18.2891 12.2189C18.2898 12.3722 18.3434 12.5205 18.4407 12.6389C18.3367 13.2476 17.668 13.5764 17.1224 13.2872V13.0522C17.1217 12.9339 17.0582 12.8248 16.9557 12.7656V12.2189H17.2891C17.4732 12.2189 17.6224 12.0697 17.6224 11.8856V11.3856C17.6224 11.2015 17.4732 11.0522 17.2891 11.0522H16.9557V10.7189C16.9557 9.79844 16.2095 9.05225 15.2891 9.05225C14.3686 9.05225 13.6224 9.79844 13.6224 10.7189V11.0522H13.2891C13.105 11.0522 12.9557 11.2015 12.9557 11.3856V11.8856C12.9557 12.0697 13.105 12.2189 13.2891 12.2189H13.6224V12.7656C13.5199 12.8248 13.4564 12.9339 13.4557 13.0522V13.2672C12.3305 13.0035 11.2313 13.7934 11.1224 14.9439C11.0533 15.0228 11.0041 15.1171 10.9791 15.2189H10.6224C10.4383 15.2189 10.2891 15.3681 10.2891 15.5522V16.0522C10.2891 16.2745 10.6224 16.2745 10.6224 16.0522V15.5522H10.9791C11.0312 15.7588 11.1804 15.9271 11.3791 16.0039C11.4041 16.0134 11.4297 16.0212 11.4557 16.0272V16.3856H10.9557C10.7335 16.3856 10.7335 16.7189 10.9557 16.7189H11.4557C11.6398 16.7189 11.7891 16.5697 11.7891 16.3856V16.0306C12.2576 15.9076 12.4427 15.3417 12.1374 14.9656C12.2462 14.3604 12.913 14.0367 13.4557 14.3256V15.0522C13.4557 15.2363 13.605 15.3856 13.7891 15.3856V16.3856V17.0522V17.5522H13.5807C13.4321 17.5525 13.3016 17.651 13.2607 17.7939L13.0224 18.6272C12.9613 18.8407 13.1221 19.053 13.3441 19.0522H17.2341C17.4554 19.0519 17.6149 18.84 17.5541 18.6272L17.3157 17.7939C17.275 17.6516 17.1454 17.5532 16.9974 17.5522H16.7891V17.0522V16.3856V15.3856C16.9732 15.3856 17.1224 15.2363 17.1224 15.0522V14.3456C18.2476 14.6093 19.3468 13.8195 19.4557 12.6689C19.5272 12.5907 19.5787 12.4964 19.6057 12.3939H19.9557C20.1398 12.3939 20.2891 12.2447 20.2891 12.0606V11.5522C20.2891 11.4602 20.2144 11.3856 20.1224 11.3856ZM18.6591 12.0672C18.716 11.9558 18.8306 11.8856 18.9557 11.8856C18.9958 11.8868 19.0353 11.8953 19.0724 11.9106C19.3035 12.0027 19.3559 12.3063 19.1691 12.4706C19.1255 12.5091 19.0726 12.5355 19.0157 12.5472C18.9745 12.5555 18.932 12.5555 18.8907 12.5472C18.8286 12.5363 18.7708 12.508 18.7241 12.4656L18.7091 12.4556C18.6081 12.3528 18.5846 12.1969 18.6507 12.0689L18.6591 12.0672ZM13.9557 11.2189V10.8856H16.6224V11.8806L15.2653 11.8785L13.9557 11.8766V11.2189ZM13.9557 12.2302L15.2653 12.6032L16.6224 12.2339V12.7189H13.9557V12.2302ZM17.2891 11.3856V11.8856H16.9557V11.3856H17.2891ZM15.2891 9.38558C15.9612 9.38535 16.5284 9.88541 16.6124 10.5522H13.9657C14.0497 9.88541 14.617 9.38535 15.2891 9.38558ZM13.2891 11.8856V11.3856H13.6224V11.8856H13.2891ZM11.9191 15.5372C11.8621 15.6487 11.7475 15.7188 11.6224 15.7189C11.5818 15.7179 11.5417 15.7094 11.5041 15.6939C11.273 15.6018 11.2205 15.2982 11.4074 15.1339C11.4492 15.0937 11.501 15.0655 11.5574 15.0522C11.579 15.0502 11.6008 15.0502 11.6224 15.0522C11.6446 15.0501 11.6669 15.0501 11.6891 15.0522C11.7512 15.0631 11.809 15.0915 11.8557 15.1339L11.8691 15.1422C11.9713 15.2449 11.9956 15.4019 11.9291 15.5306L11.9191 15.5372ZM13.0341 13.8856C12.4896 13.8847 12.0074 14.2367 11.8424 14.7556C11.8136 14.746 11.784 14.7388 11.7541 14.7339C11.7108 14.7242 11.6667 14.7192 11.6224 14.7189C11.5844 14.7191 11.5465 14.7224 11.5091 14.7289C11.7351 13.8803 12.6085 13.3778 13.4557 13.6089V13.9589C13.3205 13.9102 13.1778 13.8854 13.0341 13.8856ZM15.4557 15.3856V16.3856V17.0522V17.5522H15.1224V17.0522C15.1224 17.0522 15.1171 16.6523 15.1224 16.3856V15.3856H15.4557ZM14.7891 15.3856V16.3856C14.7891 16.4776 14.7144 16.5522 14.6224 16.5522H14.2891C14.197 16.5522 14.1224 16.4776 14.1224 16.3856V15.3856H14.7891ZM14.1224 17.0522C14.1224 16.9602 14.197 16.8856 14.2891 16.8856H14.6224C14.7144 16.8856 14.7891 16.9602 14.7891 17.0522V17.5522H14.1224V17.0522ZM13.5807 17.8856H15.1224V18.7189H13.3441L13.5807 17.8856ZM17.2341 18.7189H15.4557V17.8856H16.9974L17.2341 18.7189ZM15.7891 17.5522V17.0522C15.7891 16.9602 15.8637 16.8856 15.9557 16.8856H16.2891C16.3811 16.8856 16.4557 16.9602 16.4557 17.0522V17.5522H15.7891ZM16.4557 16.3856C16.4557 16.4776 16.3811 16.5522 16.2891 16.5522H15.9557C15.8637 16.5522 15.7891 16.4776 15.7891 16.3856V15.3856H16.4557V16.3856ZM16.6224 15.0522H13.7891V13.0522H16.7891V13.3856V14.1256V15.0522H16.6224ZM17.5407 14.0522C17.3998 14.0548 17.2591 14.0386 17.1224 14.0039V13.6539C17.7888 13.8942 18.5214 13.5325 18.7357 12.8572C18.7645 12.8668 18.7941 12.8741 18.8241 12.8789H18.8524C18.8866 12.8839 18.9212 12.8861 18.9557 12.8856C18.9813 12.8871 19.0069 12.8871 19.0324 12.8856H19.0691C18.8799 13.5725 18.2565 14.0494 17.5441 14.0522H17.5407Z" fill="white"/>
<path d="M14.5479 11.4143C14.5394 11.4077 14.5298 11.4026 14.5196 11.3993C14.5097 11.3942 14.499 11.3909 14.4879 11.3893C14.4666 11.3842 14.4443 11.3842 14.4229 11.3893C14.4125 11.3911 14.4024 11.3944 14.3929 11.3993C14.3823 11.4029 14.3722 11.408 14.3629 11.4143L14.3379 11.4343C14.3225 11.4498 14.3103 11.4683 14.302 11.4886C14.2937 11.5089 14.2895 11.5307 14.2896 11.5526C14.2889 11.5637 14.2889 11.5748 14.2896 11.5859C14.2915 11.5964 14.2948 11.6065 14.2996 11.6159C14.3029 11.6262 14.308 11.6358 14.3146 11.6443L14.3346 11.6709C14.3506 11.6868 14.3696 11.6992 14.3905 11.7076C14.4114 11.7159 14.4338 11.7198 14.4563 11.7193C14.5004 11.7187 14.5427 11.7014 14.5746 11.6709L14.5946 11.6443C14.6012 11.6358 14.6063 11.6262 14.6096 11.6159C14.6156 11.6067 14.6201 11.5966 14.6229 11.5859C14.6237 11.5748 14.6237 11.5637 14.6229 11.5526C14.6223 11.5085 14.6051 11.4662 14.5746 11.4343L14.5479 11.4143Z" fill="white"/>
<path d="M16.216 11.4137C16.2068 11.4074 16.1967 11.4024 16.186 11.3987L16.156 11.3854C16.1341 11.3803 16.1113 11.3803 16.0894 11.3854C16.0789 11.3872 16.0688 11.3906 16.0594 11.3954C16.0488 11.399 16.0387 11.4041 16.0294 11.4104L16.0044 11.4304C15.9888 11.4459 15.9764 11.4643 15.9679 11.4846C15.9594 11.5049 15.9551 11.5267 15.9551 11.5487C15.9551 11.5707 15.9594 11.5925 15.9679 11.6128C15.9764 11.6331 15.9888 11.6516 16.0044 11.6671L16.0294 11.6871C16.0387 11.6934 16.0488 11.6984 16.0594 11.7021L16.0894 11.7121H16.1227H16.156L16.186 11.7021C16.1967 11.6984 16.2068 11.6934 16.216 11.6871L16.241 11.6671C16.2567 11.6516 16.2691 11.6331 16.2775 11.6128C16.286 11.5925 16.2903 11.5707 16.2903 11.5487C16.2903 11.5267 16.286 11.5049 16.2775 11.4846C16.2691 11.4643 16.2567 11.4459 16.241 11.4304L16.216 11.4137Z" fill="white"/>
</g>
<defs>
<clipPath id="clip0_169_12294">
<rect width="32" height="32" fill="white"/>
</clipPath>
</defs>
</svg>
